<?xml version="1.0" encoding="iso-8859-1"?>
<!-- Generator: Adobe Illustrator 19.0.0, SVG Export Plug-In . SVG Version: 6.00 Build 0)  -->
<svg version="1.1" id="Capa_1" xmlns="http://www.w3.org/2000/svg" xmlns:xlink="http://www.w3.org/1999/xlink" x="0px" y="0px"
	 viewBox="0 0 488 488" style="enable-background:new 0 0 488 488;" xml:space="preserve">
<g>
	<g>
		<path fill="white" d="M472,0H8C3.582,0,0,3.582,0,8v32c0,4.418,3.582,8,8,8h192v32h-16c-4.418,0-8,3.582-8,8v28.8l-85.8,90.16
			c-0.221,0.302-0.419,0.62-0.592,0.952c-0.864,0.947-1.356,2.174-1.384,3.456c-0.104,0.364-0.179,0.736-0.224,1.112V320
			c0,4.418,3.582,8,8,8h224c4.418,0,8-3.582,8-8V212.48c-0.046-0.373-0.121-0.742-0.224-1.104c-0.049-0.632-0.175-1.255-0.376-1.856
			c-0.268-0.573-0.607-1.11-1.008-1.6c-0.176-0.33-0.374-0.648-0.592-0.952L240,116.8V88c0-4.418-3.582-8-8-8h-16V48h256
			c4.418,0,8-3.582,8-8V8C480,3.582,476.418,0,472,0z M312,312H104v-91.52h208V312z M301.344,204.48H114.656l72.8-76.48h41.136
			L301.344,204.48z M224,96v16h-32V96H224z M464,32H16V16h448V32z"/>
	</g>
</g>
<g>
	<g>
		<path fill="white" d="M128,232c-4.418,0-8,3.582-8,8v56c0,4.418,3.582,8,8,8s8-3.582,8-8v-56C136,235.582,132.418,232,128,232z"/>
	</g>
</g>
<g>
	<g>
		<path fill="white" d="M160,232c-4.418,0-8,3.582-8,8v56c0,4.418,3.582,8,8,8s8-3.582,8-8v-56C168,235.582,164.418,232,160,232z"/>
	</g>
</g>
<g>
	<g>
		<path fill="white" d="M192,232c-4.418,0-8,3.582-8,8v56c0,4.418,3.582,8,8,8s8-3.582,8-8v-56C200,235.582,196.418,232,192,232z"/>
	</g>
</g>
<g>
	<g>
		<path fill="white" d="M224,232c-4.418,0-8,3.582-8,8v56c0,4.418,3.582,8,8,8s8-3.582,8-8v-56C232,235.582,228.418,232,224,232z"/>
	</g>
</g>
<g>
	<g>
		<path fill="white" d="M256,232c-4.418,0-8,3.582-8,8v56c0,4.418,3.582,8,8,8s8-3.582,8-8v-56C264,235.582,260.418,232,256,232z"/>
	</g>
</g>
<g>
	<g>
		<path fill="white" d="M288,232c-4.418,0-8,3.582-8,8v56c0,4.418,3.582,8,8,8s8-3.582,8-8v-56C296,235.582,292.418,232,288,232z"/>
	</g>
</g>
<g>
	<g>
		<path fill="white" d="M84,384c-11.046,0-20,8.954-20,20c0,11.046,8.954,20,20,20s20-8.954,20-20C104,392.954,95.046,384,84,384z M84,408
			c-2.209,0-4-1.791-4-4c0-2.209,1.791-4,4-4c2.209,0,4,1.791,4,4C88,406.209,86.209,408,84,408z"/>
	</g>
</g>
<g>
	<g>
		<path fill="white" d="M160,408h-8c-4.418,0-8,3.582-8,8v8c0,4.418,3.582,8,8,8h8c4.418,0,8-3.582,8-8v-8C168,411.582,164.418,408,160,408z"/>
	</g>
</g>
<g>
	<g>
		<path fill="white" d="M200,408h-8c-4.418,0-8,3.582-8,8v8c0,4.418,3.582,8,8,8h8c4.418,0,8-3.582,8-8v-8C208,411.582,204.418,408,200,408z"/>
	</g>
</g>
<g>
	<g>
		<path fill="white" d="M240,408h-8c-4.418,0-8,3.582-8,8v8c0,4.418,3.582,8,8,8h8c4.418,0,8-3.582,8-8v-8C248,411.582,244.418,408,240,408z"/>
	</g>
</g>
<g>
	<g>
		<path fill="white" d="M480,200c4.418,0,8-3.582,8-8v-48c0-4.418-3.582-8-8-8h-8V56h-16v80h-24V72h-16v64h-24V96h-16v40h-16
			c-4.418,0-8,3.582-8,8v48c0,4.418,3.582,8,8,8h16v176H148.28l-13.6-20.44c-1.489-2.232-3.997-3.568-6.68-3.56H16
			c-4.418-0.002-8.001,3.579-8.003,7.997c0,1.018,0.193,2.026,0.571,2.971l48,120c1.214,3.04,4.158,5.033,7.432,5.032h416
			c4.418,0,8-3.582,8-8v-96c0-4.418-3.582-8-8-8h-16V200H480z M472,392v80H69.416l-41.6-104h95.904l13.6,20.44
			c1.489,2.232,3.997,3.568,6.68,3.56H472z M392,376V200h56v176H392z M368,184v-8h48v-16h-48v-8h104v32H368z"/>
	</g>
</g>
<g>
	<g>
		<rect fill="white" x="408" y="216" width="24" height="16"/>
	</g>
</g>
<g>
	<g>
		<rect fill="white" x="408" y="248" width="24" height="16"/>
	</g>
</g>
<g>
	<g>
		<rect fill="white" x="408" y="280" width="24" height="16"/>
	</g>
</g>
<g>
</g>
<g>
</g>
<g>
</g>
<g>
</g>
<g>
</g>
<g>
</g>
<g>
</g>
<g>
</g>
<g>
</g>
<g>
</g>
<g>
</g>
<g>
</g>
<g>
</g>
<g>
</g>
<g>
</g>
</svg>
