<svg id="_x33_0" enable-background="new 0 0 64 64" height="512" viewBox="0 0 64 64" width="512" xmlns="http://www.w3.org/2000/svg" xmlns:xlink="http://www.w3.org/1999/xlink"><linearGradient id="SVGID_1_" gradientUnits="userSpaceOnUse" x1="32" x2="32" y1="63" y2="1"><stop offset="0" stop-color="#9f2fff"/><stop offset="1" stop-color="#0bb1d3"/></linearGradient><path d="m15 59h-14v-2h14zm47.196-54.406c.518.693.804 1.55.804 2.413v47.993c0 1.103-.897 2-2 2h-2v4h4v2h-62v-2h20v-4h-2c-1.103 0-2-.897-2-2v-2c0-1.103.897-2 2-2h2v-8h-6c-1.103 0-2-.897-2-2v-18.279c0-.862.55-1.625 1.368-1.897l9.695-3.231-4.031-1.512-16.011 7.115c-.62.276-1.021.893-1.021 1.572 0 .098.008.195.025.291l4.571 26.514c.143.826.855 1.427 1.695 1.427h5.709v2h-5.709c-1.816 0-3.357-1.299-3.665-3.088l-4.572-26.513c-.036-.208-.054-.42-.054-.631 0-1.469.867-2.803 2.208-3.399l1.059-.47.485-9.213c.168-3.189 2.8-5.686 5.992-5.686h.256v-3c0-1.103.897-2 2-2h8c1.103 0 2 .897 2 2v3h2v2h-14.256c-2.128 0-3.882 1.665-3.995 3.79l-.431 8.196 2.145-.953.478-7.166c.068-1.047.945-1.867 1.995-1.867h14.064v2h-4v2.307l6.079 2.28 1.927-.642c.024-1.277.85-2.352 1.994-2.76v-2.433l-2.468-.594c-.902-.219-1.532-1.018-1.532-1.946v-3.212c0-1.103.897-2 2-2h21.838l5.381-1.793c1.612-.538 3.474.049 4.487 1.401zm-49.196 1.406h8v-3h-8zm-2.472 12.115 8.472-3.765v-2.35h-8.064zm46.472 18.885h-34v2h34zm-28-6h-2v4h2zm8 0h-2v4h2zm8 0h-2v4h2zm-15.353-13.162-9.485 3.162h10.838v-2.184c-.541-.193-1.006-.534-1.353-.978zm3.353.978v2.184h10.838l-9.485-3.162c-.347.444-.812.785-1.353.978zm4.047-8.668 9.188 2.211-5.273-6.779zm1.779-5.148h-8.288l4.605 4.296zm9.437 6.708 1.49-6.708h-6.708zm.116 8.698 1.544.515 11.077-5.539v-1.303l-11.407.863zm-33.379 2.594v2h34v-2zm36 11.382 9.011-4.506-9.011-6.008zm10-6.25v-10.514l-9.011 4.506zm-9.146-23.362-1.807 8.132 10.953-.829v-5.066c0-.435-.144-.865-.404-1.213l-1.49-1.985c-.509-.681-1.447-.974-2.254-.705zm-22.854 3.442 2.762.665-2.762-2.577zm4 3.02v1.952c1.145.408 1.971 1.483 1.994 2.76l11.477 3.825 1.117-5.027zm-2 4.768c0 .552.449 1 1 1s1-.448 1-1-.449-1-1-1-1 .448-1 1zm-16 25h2v-12h6v6h2v-6h6v6h2v-6h6v6h2v-6h6v6h2v-8h-34zm6 0v-10h-2v10zm2 10h2v-8h6v8h2v-8h6v8h2v-8h6v8h2v-8h6v8h2v-10h-34zm30-6h-2v6h2zm-8 0h-2v6h2zm-8 0h-2v6h2zm-8 0h-2v6h2zm-6 16h2v-4h-2zm4-4v4h26v-4zm30 0h-2v4h2zm4-4h-42v2h42zm0-2v-19.382l-6.764 3.382h2.764c1.103 0 2 .897 2 2v14zm-8-43c0-1.654 1.346-3 3-3s3 1.346 3 3-1.346 3-3 3-3-1.346-3-3zm2 0c0 .552.449 1 1 1s1-.448 1-1-.449-1-1-1-1 .448-1 1z" fill="url(#SVGID_1_)"/></svg>